<svg width="101" height="6" viewBox="0 0 101 6" fill="none" xmlns="http://www.w3.org/2000/svg">
<path d="M0 3L5 5.88675V0.113249L0 3ZM100 3.5C100.276 3.5 100.5 3.27614 100.5 3C100.5 2.72386 100.276 2.5 100 2.5V3.5ZM1 3.5C1.27614 3.5 1.5 3.27614 1.5 3C1.5 2.72386 1.27614 2.5 1 2.5V3.5ZM3 2.5C2.72386 2.5 2.5 2.72386 2.5 3C2.5 3.27614 2.72386 3.5 3 3.5V2.5ZM5 3.5C5.27614 3.5 5.5 3.27614 5.5 3C5.5 2.72386 5.27614 2.5 5 2.5V3.5ZM7 2.5C6.72386 2.5 6.5 2.72386 6.5 3C6.5 3.27614 6.72386 3.5 7 3.5V2.5ZM9 3.5C9.27614 3.5 9.5 3.27614 9.5 3C9.5 2.72386 9.27614 2.5 9 2.5V3.5ZM11 2.5C10.7239 2.5 10.5 2.72386 10.5 3C10.5 3.27614 10.7239 3.5 11 3.5V2.5ZM13 3.5C13.2761 3.5 13.5 3.27614 13.5 3C13.5 2.72386 13.2761 2.5 13 2.5V3.5ZM15 2.5C14.7239 2.5 14.5 2.72386 14.5 3C14.5 3.27614 14.7239 3.5 15 3.5V2.5ZM17 3.5C17.2761 3.5 17.5 3.27614 17.5 3C17.5 2.72386 17.2761 2.5 17 2.5V3.5ZM19 2.5C18.7239 2.5 18.5 2.72386 18.5 3C18.5 3.27614 18.7239 3.5 19 3.5V2.5ZM21 3.5C21.2761 3.5 21.5 3.27614 21.5 3C21.5 2.72386 21.2761 2.5 21 2.5V3.5ZM23 2.5C22.7239 2.5 22.5 2.72386 22.5 3C22.5 3.27614 22.7239 3.5 23 3.5V2.5ZM25 3.5C25.2761 3.5 25.5 3.27614 25.5 3C25.5 2.72386 25.2761 2.5 25 2.5V3.5ZM27 2.5C26.7239 2.5 26.5 2.72386 26.5 3C26.5 3.27614 26.7239 3.5 27 3.5V2.5ZM29 3.5C29.2761 3.5 29.5 3.27614 29.5 3C29.5 2.72386 29.2761 2.5 29 2.5V3.5ZM31 2.5C30.7239 2.5 30.5 2.72386 30.5 3C30.5 3.27614 30.7239 3.5 31 3.5V2.5ZM33 3.5C33.2761 3.5 33.5 3.27614 33.5 3C33.5 2.72386 33.2761 2.5 33 2.5V3.5ZM35 2.5C34.7239 2.5 34.5 2.72386 34.5 3C34.5 3.27614 34.7239 3.5 35 3.5V2.5ZM37 3.5C37.2761 3.5 37.5 3.27614 37.5 3C37.5 2.72386 37.2761 2.5 37 2.5V3.5ZM39 2.5C38.7239 2.5 38.5 2.72386 38.5 3C38.5 3.27614 38.7239 3.5 39 3.5V2.5ZM41 3.5C41.2761 3.5 41.5 3.27614 41.5 3C41.5 2.72386 41.2761 2.5 41 2.5V3.5ZM43 2.5C42.7239 2.5 42.5 2.72386 42.5 3C42.5 3.27614 42.7239 3.5 43 3.5V2.5ZM45 3.5C45.2761 3.5 45.5 3.27614 45.5 3C45.5 2.72386 45.2761 2.5 45 2.5V3.5ZM47 2.5C46.7239 2.5 46.5 2.72386 46.5 3C46.5 3.27614 46.7239 3.5 47 3.5V2.5ZM49 3.5C49.2761 3.5 49.5 3.27614 49.5 3C49.5 2.72386 49.2761 2.5 49 2.5V3.5ZM51 2.5C50.7239 2.5 50.5 2.72386 50.5 3C50.5 3.27614 50.7239 3.5 51 3.5V2.5ZM53 3.5C53.2761 3.5 53.5 3.27614 53.5 3C53.5 2.72386 53.2761 2.5 53 2.5V3.5ZM55 2.5C54.7239 2.5 54.5 2.72386 54.5 3C54.5 3.27614 54.7239 3.5 55 3.5V2.5ZM57 3.5C57.2761 3.5 57.5 3.27614 57.5 3C57.5 2.72386 57.2761 2.5 57 2.5V3.5ZM59 2.5C58.7239 2.5 58.5 2.72386 58.5 3C58.5 3.27614 58.7239 3.5 59 3.5V2.5ZM61 3.5C61.2761 3.5 61.5 3.27614 61.5 3C61.5 2.72386 61.2761 2.5 61 2.5V3.5ZM63 2.5C62.7239 2.5 62.5 2.72386 62.5 3C62.5 3.27614 62.7239 3.5 63 3.5V2.5ZM65 3.5C65.2761 3.5 65.5 3.27614 65.5 3C65.5 2.72386 65.2761 2.5 65 2.5V3.5ZM67 2.5C66.7239 2.5 66.5 2.72386 66.5 3C66.5 3.27614 66.7239 3.5 67 3.5V2.5ZM69 3.5C69.2761 3.5 69.5 3.27614 69.5 3C69.5 2.72386 69.2761 2.5 69 2.5V3.5ZM71 2.5C70.7239 2.5 70.5 2.72386 70.5 3C70.5 3.27614 70.7239 3.5 71 3.5V2.5ZM73 3.5C73.2761 3.5 73.5 3.27614 73.5 3C73.5 2.72386 73.2761 2.5 73 2.5V3.5ZM75 2.5C74.7239 2.5 74.5 2.72386 74.5 3C74.5 3.27614 74.7239 3.5 75 3.5V2.5ZM77 3.5C77.2761 3.5 77.5 3.27614 77.5 3C77.5 2.72386 77.2761 2.5 77 2.5V3.5ZM79 2.5C78.7239 2.5 78.5 2.72386 78.5 3C78.5 3.27614 78.7239 3.5 79 3.5V2.5ZM81 3.5C81.2761 3.5 81.5 3.27614 81.5 3C81.5 2.72386 81.2761 2.5 81 2.5V3.5ZM83 2.5C82.7239 2.5 82.5 2.72386 82.5 3C82.5 3.27614 82.7239 3.5 83 3.5V2.5ZM85 3.5C85.2761 3.5 85.5 3.27614 85.5 3C85.5 2.72386 85.2761 2.5 85 2.5V3.5ZM87 2.5C86.7239 2.5 86.5 2.72386 86.5 3C86.5 3.27614 86.7239 3.5 87 3.5V2.5ZM89 3.5C89.2761 3.5 89.5 3.27614 89.5 3C89.5 2.72386 89.2761 2.5 89 2.5V3.5ZM91 2.5C90.7239 2.5 90.5 2.72386 90.5 3C90.5 3.27614 90.7239 3.5 91 3.5V2.5ZM93 3.5C93.2761 3.5 93.5 3.27614 93.5 3C93.5 2.72386 93.2761 2.5 93 2.5V3.5ZM95 2.5C94.7239 2.5 94.5 2.72386 94.5 3C94.5 3.27614 94.7239 3.5 95 3.5V2.5ZM97 3.5C97.2761 3.5 97.5 3.27614 97.5 3C97.5 2.72386 97.2761 2.5 97 2.5V3.5ZM99 2.5C98.7239 2.5 98.5 2.72386 98.5 3C98.5 3.27614 98.7239 3.5 99 3.5V2.5ZM3 3.5H5V2.5H3V3.5ZM7 3.5H9V2.5H7V3.5ZM11 3.5H13V2.5H11V3.5ZM15 3.5H17V2.5H15V3.5ZM19 3.5H21V2.5H19V3.5ZM23 3.5H25V2.5H23V3.5ZM27 3.5H29V2.5H27V3.5ZM31 3.5H33V2.5H31V3.5ZM35 3.5H37V2.5H35V3.5ZM39 3.5H41V2.5H39V3.5ZM43 3.5H45V2.5H43V3.5ZM47 3.5H49V2.5H47V3.5ZM51 3.5H53V2.5H51V3.5ZM55 3.5H57V2.5H55V3.5ZM59 3.5H61V2.5H59V3.5ZM63 3.5H65V2.5H63V3.5ZM67 3.5H69V2.5H67V3.5ZM71 3.5H73V2.5H71V3.5ZM75 3.5H77V2.5H75V3.5ZM79 3.5H81V2.5H79V3.5ZM83 3.5H85V2.5H83V3.5ZM87 3.5H89V2.5H87V3.5ZM91 3.5H93V2.5H91V3.5ZM95 3.5H97V2.5H95V3.5ZM99 3.5H100V2.5H99V3.5Z" fill="#3DB1FF"/>
</svg>
